HIERARCHY
ROOT ROOT
{
	OFFSET 0.000000 56.020000 -5.659234
	CHANNELS 6 Xposition Yposition Zposition Xrotation Yrotation Zrotation 
	JOINT C_spine0001_bind_JNT
	{
		OFFSET 0.000000 1.618999 0.000000
		CHANNELS 3 Xrotation Yrotation Zrotation
		JOINT C_spine0002_bind_JNT
		{
			OFFSET 0.000000 4.942001 0.000001
			CHANNELS 3 Xrotation Yrotation Zrotation
			JOINT C_spine0003_bind_JNT
			{
				OFFSET 0.000000 4.942001 -0.000000
				CHANNELS 3 Xrotation Yrotation Zrotation
				JOINT C_neck0001_bind_JNT
				{
					OFFSET 0.000000 17.026009 -0.000000
					CHANNELS 3 Xrotation Yrotation Zrotation
					JOINT C_neck0002_bind_JNT
					{
						OFFSET 0.000000 3.249985 0.000000
						CHANNELS 3 Xrotation Yrotation Zrotation
						JOINT C_head_bind_JNT
						{
							OFFSET 0.000000 5.278008 0.000000
							CHANNELS 3 Xrotation Yrotation Zrotation
							End Site
							{
								OFFSET 0.000000 0.000000 0.000000
							}
						}
					}
				}
				JOINT L_clavicle_bind_JNT
				{
					OFFSET 4.590000 12.067001 0.834000
					CHANNELS 3 Xrotation Yrotation Zrotation
					JOINT L_armUpper0001_bind_JNT
					{
						OFFSET 7.812635 0.512001 -3.452945
						CHANNELS 3 Xrotation Yrotation Zrotation
						JOINT L_armLower0001_bind_JNT
						{
							OFFSET 15.265892 -6.552116 -0.058157
							CHANNELS 3 Xrotation Yrotation Zrotation
							JOINT L_hand0001_bind_JNT
							{
								OFFSET 14.747667 -6.369995 5.049225
								CHANNELS 3 Xrotation Yrotation Zrotation
								End Site
								{
									OFFSET 0.000000 0.000000 0.000000
								}
							}
						}
					}
				}
				JOINT R_clavicle_bind_JNT
				{
					OFFSET -4.590000 12.067001 0.834000
					CHANNELS 3 Xrotation Yrotation Zrotation
					JOINT R_armUpper0001_bind_JNT
					{
						OFFSET -7.812635 0.512001 -3.452945
						CHANNELS 3 Xrotation Yrotation Zrotation
						JOINT R_armLower0001_bind_JNT
						{
							OFFSET -15.265890 -6.552124 -0.058160
							CHANNELS 3 Xrotation Yrotation Zrotation
							JOINT R_hand0001_bind_JNT
							{
								OFFSET -14.746784 -6.369629 5.048937
								CHANNELS 3 Xrotation Yrotation Zrotation
								End Site
								{
									OFFSET 0.000000 0.000000 0.000000
								}
							}
						}
					}
				}
			}
		}
	}
	JOINT C_pelvis0001_bind_JNT
	{
		OFFSET -0.000000 0.000000 0.000000
		CHANNELS 3 Xrotation Yrotation Zrotation
		JOINT L_legUpper0001_bind_JNT
		{
			OFFSET 6.599999 -6.027000 0.539000
			CHANNELS 3 Xrotation Yrotation Zrotation
			JOINT L_legLower0001_bind_JNT
			{
				OFFSET -0.140713 -19.187443 0.040261
				CHANNELS 3 Xrotation Yrotation Zrotation
				JOINT L_foot0001_bind_JNT
				{
					OFFSET -0.132215 -18.028637 -1.138370
					CHANNELS 3 Xrotation Yrotation Zrotation
					JOINT L_foot0002_bind_JNT
					{
						OFFSET 0.007014 -4.693133 9.886524
						CHANNELS 3 Xrotation Yrotation Zrotation
						End Site
						{
							OFFSET 0.000000 0.000000 0.000000
						}
					}
				}
			}
		}
		JOINT R_legUpper0001_bind_JNT
		{
			OFFSET -6.599999 -6.027000 0.539000
			CHANNELS 3 Xrotation Yrotation Zrotation
			JOINT R_legLower0001_bind_JNT
			{
				OFFSET 0.140710 -19.187164 0.040550
				CHANNELS 3 Xrotation Yrotation Zrotation
				JOINT R_foot0001_bind_JNT
				{
					OFFSET 0.132215 -18.028633 -1.138362
					CHANNELS 3 Xrotation Yrotation Zrotation
					JOINT R_foot0002_bind_JNT
					{
						OFFSET -0.007014 -4.693128 9.886505
						CHANNELS 3 Xrotation Yrotation Zrotation
						End Site
						{
							OFFSET 0.000000 0.000000 0.000000
						}
					}
				}
			}
		}
	}
}
MOTION
Frames: 9
Frame Time: 0.033333
0.000000 48.928001 0.000000 0.040277 -0.270568 -0.024232 -2.293806 1.540465 -4.074540 10.575868 -1.682826 -4.859707 4.580720 -0.941544 -3.010393 -0.128419 0.452219 -2.542908 2.097284 2.233079 0.622248 24.735779 6.312952 9.166826 -5.804722 11.895960 0.968883 0.361645 10.720042 -50.522320 13.995474 -13.451553 1.779888 6.179404 -31.117842 -22.013599 -6.046838 -3.898407 0.127644 11.042971 -19.022646 54.789043 12.998069 18.743021 3.875164 3.974701 27.194418 27.694265 0.502378 1.374343 -4.688191 -14.642845 0.775046 5.556839 21.198006 1.933167 -1.092378 -10.192153 8.633622 -1.352382 1.123446 -0.434063 0.189032 -8.894125 -1.546707 -11.160362 22.509615 2.690411 -0.828434 8.068201 -6.110615 16.598635 -16.127270 1.024031 -2.057778 
-0.555896 48.558182 -0.043561 0.015515 1.454894 -0.035391 -3.165068 0.132039 -4.355864 11.051434 -1.990855 -5.267212 4.778725 -1.257789 -2.761828 -0.464055 -0.085958 -2.965835 2.444822 1.720191 0.872639 27.266432 7.491495 9.819586 -5.805901 11.050859 2.029104 0.973929 10.612615 -51.335411 12.121325 -13.328068 1.046317 4.535286 -31.408173 -23.639540 -5.433208 -4.497396 0.057104 11.238126 -19.624474 55.081142 13.820708 20.728466 3.027056 3.076904 25.214853 27.307474 -0.338247 -0.392578 -4.397082 -14.419609 1.095278 5.683916 22.577396 1.825290 -0.473088 -10.446534 8.281876 -1.811446 0.839652 -0.470433 0.124680 -8.806937 -0.313492 -10.426167 21.735769 2.777935 -0.458520 8.478556 -8.101042 15.996845 -15.936577 0.967130 -1.869267 
-0.859119 48.604504 -0.245636 0.012329 1.312928 -0.015450 -2.728948 0.029029 -4.294804 10.663107 -2.040982 -5.165981 5.052706 -1.352370 -2.806239 -0.350449 -0.297638 -3.367361 2.344635 1.081756 1.087685 28.120070 8.210771 10.343719 -5.941335 10.908947 1.928290 0.844490 10.731509 -51.694229 11.620654 -13.640100 1.077256 4.565525 -31.295433 -23.187639 -5.749499 -5.452057 0.193710 11.836220 -20.029171 55.081551 14.595055 20.869938 2.683702 3.476806 25.042080 26.670061 -0.335608 -0.489291 -4.255659 -15.705544 1.377410 5.761646 24.181627 1.366783 0.131971 -10.754565 8.306433 -2.338034 1.341949 -0.389815 0.162508 -7.577640 -1.109563 -10.592281 18.406927 2.730853 -0.527856 9.028885 -8.654103 16.068298 -14.627700 0.835104 -1.628171 
-1.119974 48.590176 -0.447367 0.019287 1.204894 -0.032419 -2.741234 -0.178848 -4.452409 10.643690 -2.149645 -5.198058 4.853656 -1.416847 -2.607831 -0.379999 -0.088016 -3.746918 2.581453 0.556502 1.269698 28.276682 8.427926 10.371377 -5.811883 10.902307 2.016225 0.899246 10.201915 -51.754982 11.443783 -13.539890 0.643008 4.269644 -31.453941 -22.771463 -5.608757 -6.134476 -0.005234 12.394623 -20.818480 55.016724 15.194059 20.854456 2.707280 3.332259 25.173302 26.718473 -0.289262 -0.741973 -4.320479 -16.273848 1.436879 6.253972 24.805996 1.076764 0.357356 -10.734227 8.325866 -2.861331 1.078041 -0.371439 0.213595 -6.386500 -0.780787 -10.212801 15.021346 2.213076 -0.130476 8.002477 -9.091121 14.752745 -12.058178 0.441592 -0.601593 
-1.322058 48.520023 -0.714526 0.018331 1.057099 -0.023234 -2.279635 -0.427278 -4.428095 10.345600 -2.350276 -5.060881 4.726722 -1.538990 -2.809334 -0.467874 -0.133571 -3.892056 2.464186 0.326097 1.484045 29.135761 8.549161 10.490237 -6.077953 10.697816 2.355497 1.311399 11.205171 -52.167480 11.580242 -13.769564 0.722263 4.547523 -31.663509 -22.721680 -5.800952 -6.357872 -0.170152 13.281631 -21.771585 54.989555 15.598744 21.119543 2.629773 3.318081 24.998360 27.040564 -0.226492 -1.008168 -4.368676 -16.991093 1.064675 6.228241 25.441462 1.417283 0.559199 -10.638665 8.083381 -3.417975 1.135970 -0.324194 0.281885 -5.035629 -0.518007 -9.413626 10.781465 1.324593 -0.398496 7.483111 -9.367701 13.500204 -9.413051 0.282297 0.054555 
-1.664640 48.536934 -1.087473 0.018778 0.746663 -0.018946 -2.011765 -0.407143 -4.208705 10.382830 -2.468062 -5.116094 4.601929 -1.596853 -2.644309 -0.444789 -0.164597 -3.944662 2.391625 -0.108253 1.373617 29.087345 8.691838 10.478040 -5.993988 10.510316 2.525398 1.458994 11.161081 -52.429802 11.402807 -13.936343 0.049006 4.092320 -31.488949 -22.608170 -5.648472 -6.462740 -0.429203 13.523211 -22.148905 55.342331 15.869915 21.530766 2.466940 3.036966 24.492502 27.326365 0.025772 -1.008353 -4.264587 -17.545610 1.193385 6.548635 24.999557 1.167376 0.833193 -10.004051 7.892264 -3.820383 1.433742 -0.219183 0.013547 -4.575378 -0.246656 -9.072533 7.449264 0.421596 -0.186508 7.469777 -9.739758 12.798104 -7.019979 0.455861 0.251399 
-2.140249 48.424496 -1.570092 0.023972 0.380394 -0.025949 -1.810357 -0.363480 -3.653224 10.628377 -2.578768 -4.895867 4.955540 -1.620822 -2.656764 -0.683539 -0.120533 -3.893116 2.363693 -0.493873 1.474769 28.870888 8.647176 10.340968 -6.073952 10.306816 2.497944 1.412426 11.259675 -52.837173 11.217566 -14.669753 -0.257977 3.660408 -31.459146 -22.716452 -5.971790 -6.575454 -0.758129 13.943791 -22.725668 55.546459 16.158100 21.614105 2.050927 2.523697 24.583118 27.766367 0.294351 -1.050919 -3.781620 -18.178556 1.283044 6.799920 24.161900 0.774967 0.928704 -8.745783 7.481814 -4.272287 1.524917 -0.306462 -0.030852 -5.135469 -0.194691 -8.662393 5.100940 -0.063195 -0.073318 6.858571 -10.377027 11.356530 -4.278687 0.523312 0.269336 
-2.557257 48.398079 -2.003770 0.021349 0.082375 -0.025779 -1.525413 -0.455651 -3.281539 11.029723 -2.403227 -4.646693 5.008743 -1.744905 -2.637880 -0.758623 -0.112136 -3.814827 2.337799 -0.867168 1.492038 28.516874 8.441893 10.082914 -6.161470 10.158701 2.191597 1.156867 11.420601 -52.892273 11.480427 -15.142522 -0.446482 3.638062 -31.289013 -22.656309 -5.971276 -6.224747 -0.835934 13.677585 -23.257626 55.742832 16.178976 21.470846 2.108640 2.853152 24.725788 27.704912 0.579457 -1.094762 -3.418137 -18.317572 1.338024 6.867979 23.001884 0.408417 0.965223 -7.979329 7.342401 -4.677351 1.712930 -0.112325 -0.025069 -5.784195 0.051545 -8.264599 3.614131 -0.501393 0.077213 6.147305 -10.686764 10.275876 -2.136723 0.427434 0.126611 
-2.964863 48.360775 -2.629412 0.019943 -0.106504 -0.018655 -1.348336 -0.534163 -2.975287 11.539841 -2.466098 -4.212466 5.393546 -1.642304 -2.539071 -1.060232 -0.157032 -3.487648 2.258277 -1.006954 1.310114 28.111609 7.944357 9.478673 -6.365723 9.841536 2.084473 1.125313 11.216373 -53.054535 11.099484 -15.848021 -0.776941 3.603165 -30.986904 -22.523920 -6.292239 -6.304484 -1.062619 13.482172 -23.151550 55.996723 16.168552 21.180023 1.748416 2.331384 24.972265 27.979790 0.770029 -1.133384 -3.076367 -18.763004 1.310582 7.127686 21.602161 0.062874 0.965451 -6.557466 7.177238 -4.963050 1.981281 -0.259594 -0.154071 -6.673859 -0.218216 -7.731482 2.519580 -0.219036 0.535959 5.201787 -11.042852 8.834921 -0.571591 0.686600 -0.065461 
